REM DIRINDEX 1\2,1\3
REM DIRNAME cjc052,folder01,folder02
TITLE ""
FILE "Disk3Track45.mp3" MP3
  TRACK 01 AUDIO
    TITLE "2:cjc052_1415"
    INDEX 01 00:00:00
  TRACK 02 AUDIO
    TITLE "2:cjc052_1416"
    INDEX 01 00:10:74
  TRACK 03 AUDIO
    TITLE "2:cjc052_1417"
    INDEX 01 00:23:28
  TRACK 04 AUDIO
    TITLE "2:cjc052_1418"
    INDEX 01 00:30:40
  TRACK 05 AUDIO
    TITLE "2:cjc052_1419"
    INDEX 01 00:35:66
  TRACK 06 AUDIO
    TITLE "0:"
    INDEX 01 00:39:66
